<svg xmlns="http://www.w3.org/2000/svg" viewBox="0 0 498 380.51"><defs><style>.cls-1{fill:#ca9d75;}</style></defs><g id="Livello_2" data-name="Livello 2"><g id="Livello_1-2" data-name="Livello 1"><path class="cls-1" d="M95.06,92.85h39.46c20.78,0,20,9.53,20.78,23.85h7l2.32-42.15H159.2c-1.06,5-7.54,7.42-16.89,7.42H24.42c-6.5,0-13.51-.27-16.37-7.42H2.85L0,116.7H6.76c4.41-17.23,5.44-23.85,28.81-23.85h34V214.49l25.45-12.72Z"/><path class="cls-1" d="M486,294.93c-16.91,52.87-38.71,68.12-101.94,68.12-77.42,0-86.14-16.89-86.14-57.23V53.43c0-38.16,20.72-38.71,49.62-39.26V0c-27.28.55-52.33,1.1-77.42,1.1-24.53,0-49.6-.55-75.22-1.1V14.17c28.89.55,49.6,1.1,49.6,39.26V329.81c0,31.08-22.35,38.17-49.6,36.52v14.18c48-1.08,95.94-1.08,144.45-1.08,46.34,0,92.13,0,138.46,1.08L498,297.11Z"/></g></g></svg>